<svg id="Camada_1" data-name="Camada 1" xmlns="http://www.w3.org/2000/svg" viewBox="0 0 664.69 136.26"><defs><style>.cls-1{fill:#10b981;}.cls-2{fill:#3d3d3d;}</style></defs><title>logo</title><path class="cls-1" d="M42.15,57.2a5.57,5.57,0,0,0-2.27-4.89,10.36,10.36,0,0,0-6-1.58,19.21,19.21,0,0,0-8.33,1.86,33.38,33.38,0,0,0-7,4.34L2.75,41.22a46.08,46.08,0,0,1,15.71-9.78A52.56,52.56,0,0,1,37.19,28q10.34,0,17.08,2.89a26.13,26.13,0,0,1,10.67,8,30.5,30.5,0,0,1,5.51,11.85A62.28,62.28,0,0,1,72,65.05v38.16H43.25V97.42H43a15.11,15.11,0,0,1-7.85,5.92,29.61,29.61,0,0,1-9.91,1.79,32.53,32.53,0,0,1-8.75-1.24,23.83,23.83,0,0,1-8.13-4,21.4,21.4,0,0,1-6-7.16A23,23,0,0,1,0,81.86q0-7.58,3.93-12.33a26.7,26.7,0,0,1,10-7.44,48.51,48.51,0,0,1,13.57-3.65,115.5,115.5,0,0,1,14.67-1Zm.27,16a34.55,34.55,0,0,0-11.29,1.51q-4.27,1.53-4.27,5.65a4.5,4.5,0,0,0,.69,2.55,5.77,5.77,0,0,0,1.79,1.72,8.36,8.36,0,0,0,2.41,1,9.48,9.48,0,0,0,2.41.35,9.65,9.65,0,0,0,7.3-2.89,10.38,10.38,0,0,0,2.75-7.44V73.18Z"/><path class="cls-1" d="M82.23,66.71a45.51,45.51,0,0,1,2.13-13.78,39.21,39.21,0,0,1,6.27-12.12A31.69,31.69,0,0,1,101,32.13a30,30,0,0,1,14.32-3.3A30.69,30.69,0,0,1,126.65,31a20.68,20.68,0,0,1,9.16,7h.41V30.76h29.89v65q0,11.83-3.86,19.69A32.85,32.85,0,0,1,152,127.93a39.81,39.81,0,0,1-14.53,6.47,73.88,73.88,0,0,1-16.53,1.86,81.89,81.89,0,0,1-20.66-2.68,57.83,57.83,0,0,1-18-7.92l13.91-21.08a36.63,36.63,0,0,0,11,5.86,36,36,0,0,0,11,1.86,23.38,23.38,0,0,0,6.54-.9,17.08,17.08,0,0,0,5.44-2.62,12.83,12.83,0,0,0,3.72-4.27,12.07,12.07,0,0,0,1.38-5.85V95.49h-.42a22.24,22.24,0,0,1-7.78,5.37,28.09,28.09,0,0,1-11.78,2.35,33.49,33.49,0,0,1-14.6-3,29.7,29.7,0,0,1-10.33-8,33.3,33.3,0,0,1-6.12-11.63A47.6,47.6,0,0,1,82.23,66.71Zm29.47,0a12.9,12.9,0,0,0,3,8.74q3,3.51,8.82,3.51a11.8,11.8,0,0,0,9-3.58A12.18,12.18,0,0,0,136,66.71a11.9,11.9,0,0,0-12.4-12q-5.79,0-8.82,3.58A12.62,12.62,0,0,0,111.7,66.71Z"/><path class="cls-1" d="M181.12,30.76H211.7V39H212a19.17,19.17,0,0,1,7-7.3,19.92,19.92,0,0,1,10.81-2.89,22,22,0,0,1,6.06.69l-2.48,27a23.08,23.08,0,0,0-3.37-.62,30.19,30.19,0,0,0-3.37-.2q-6.21,0-9.92,3.58a11.75,11.75,0,0,0-3.72,8.81v35.13H181.12Z"/><path class="cls-1" d="M319.69,66.71a39.29,39.29,0,0,1-3.38,16.66,36.65,36.65,0,0,1-9.09,12.33A39.43,39.43,0,0,1,294,103.34a48.38,48.38,0,0,1-31.41,0,38.63,38.63,0,0,1-13.15-7.64,37,37,0,0,1-9-12.33A39.29,39.29,0,0,1,237,66.71a38.46,38.46,0,0,1,3.38-16.46,36.48,36.48,0,0,1,9-12.2,38.48,38.48,0,0,1,13.15-7.5,49.64,49.64,0,0,1,31.41,0,39.28,39.28,0,0,1,13.22,7.5,36.13,36.13,0,0,1,9.09,12.2A38.46,38.46,0,0,1,319.69,66.71ZM278.23,54.86a10.86,10.86,0,0,0-8.47,3.58,12.13,12.13,0,0,0-3.24,8.4,12.35,12.35,0,0,0,3.3,8.68,12,12,0,0,0,17.08,0,12.32,12.32,0,0,0,3.31-8.68,11.9,11.9,0,0,0-3.37-8.4A11.32,11.32,0,0,0,278.23,54.86Z"/><path class="cls-1" d="M485.83,66.71A45.51,45.51,0,0,1,488,52.93a38.78,38.78,0,0,1,6.27-12.12,31.69,31.69,0,0,1,10.33-8.68,30,30,0,0,1,14.32-3.3,29.21,29.21,0,0,1,10.47,2,20.32,20.32,0,0,1,8.4,5.72H538V-.92h31.82V103.21H541.21V95.63h-.28a21,21,0,0,1-9.23,7,32.86,32.86,0,0,1-12.81,2.54,30.06,30.06,0,0,1-14.33-3.3,31.29,31.29,0,0,1-10.33-8.75A39.22,39.22,0,0,1,488,80.75,47.24,47.24,0,0,1,485.83,66.71Zm29.47,0a12.9,12.9,0,0,0,3,8.74q3,3.51,8.82,3.51a11.8,11.8,0,0,0,9-3.58,12.17,12.17,0,0,0,3.37-8.67,11.88,11.88,0,0,0-12.39-12q-5.79,0-8.82,3.58A12.62,12.62,0,0,0,515.3,66.71Z"/><path class="cls-1" d="M664.06,66.71a39.29,39.29,0,0,1-3.38,16.66,36.65,36.65,0,0,1-9.09,12.33,39.43,39.43,0,0,1-13.22,7.64,48.38,48.38,0,0,1-31.41,0,38.73,38.73,0,0,1-13.15-7.64,37,37,0,0,1-9-12.33,39.29,39.29,0,0,1-3.37-16.66,38.46,38.46,0,0,1,3.37-16.46,36.48,36.48,0,0,1,9-12.2A38.58,38.58,0,0,1,607,30.55a49.64,49.64,0,0,1,31.41,0,39.28,39.28,0,0,1,13.22,7.5,36.13,36.13,0,0,1,9.09,12.2A38.46,38.46,0,0,1,664.06,66.71ZM622.6,54.86a10.86,10.86,0,0,0-8.47,3.58,12.13,12.13,0,0,0-3.24,8.4,12.32,12.32,0,0,0,3.31,8.68,12,12,0,0,0,17.08,0,12.35,12.35,0,0,0,3.3-8.68,11.86,11.86,0,0,0-3.37-8.4A11.3,11.3,0,0,0,622.6,54.86Z"/><polygon class="cls-2" points="420.98 29.55 390.98 59.55 360.98 29.55 330.98 59.55 360.98 89.55 390.98 119.55 420.98 89.55 450.98 59.55 480.98 29.55 450.98 -0.45 420.98 29.55"/></svg>