<svg id="eFNbzRveQCr1" xmlns="http://www.w3.org/2000/svg" xmlns:xlink="http://www.w3.org/1999/xlink" viewBox="0 0 300.13 300" shape-rendering="geometricPrecision" text-rendering="geometricPrecision"><style><![CDATA[#eFNbzRveQCr2_ts {animation: eFNbzRveQCr2_ts__ts 2000ms linear infinite normal forwards}@keyframes eFNbzRveQCr2_ts__ts { 0% {transform: translate(150.065px,150px) scale(1.101896,1.101894);animation-timing-function: cubic-bezier(0.68,-0.55,0.265,1.55)} 50% {transform: translate(150.065px,150px) scale(0.838108,0.838109);animation-timing-function: cubic-bezier(0.68,-0.55,0.265,1.55)} 100% {transform: translate(150.065px,150px) scale(1.101896,1.101894)}} #eFNbzRveQCr3_ts {animation: eFNbzRveQCr3_ts__ts 2000ms linear infinite normal forwards}@keyframes eFNbzRveQCr3_ts__ts { 0% {transform: translate(150.069924px,149.999977px) scale(1,1);animation-timing-function: cubic-bezier(0.68,-0.55,0.265,1.55)} 50% {transform: translate(150.069924px,149.999977px) scale(1.200765,1.200765);animation-timing-function: cubic-bezier(0.68,-0.55,0.265,1.55)} 100% {transform: translate(150.069924px,149.999977px) scale(1,1)}}]]></style><g id="eFNbzRveQCr2_ts" transform="translate(150.065,150) scale(1.101896,1.101894)"><ellipse rx="119.986089" ry="119.986089" transform="translate(0,0)" fill="rgba(16,185,129,0.18)" stroke-width="0"/></g><g id="eFNbzRveQCr3_ts" transform="translate(150.069924,149.999977) scale(1,1)"><g transform="translate(-150.069924,-149.999977)"><path d="M149.81,218c-37,0-67.66-30.42-67.77-67.27C81.92,112.85,112.37,82,149.87,82c18.117039-.018656,35.4961,7.176214,48.298342,19.995342s19.974196,30.20766,19.931658,48.324658C218.06,187.7,187.52,218,149.81,218Zm-2.48-60.94l-1.47.73c-8.09-10.65-18.69-16.15-32.1-16.1-2.89,0-4.92.41-5.18,4-1.34,18.6,12.46,36.35,30.79,39.38c2.32.38,4.68.54,7.37.84c0,4-.18,7.68.06,11.31.17,2.73-1.44,7.06,3.2,7.14s3.24-4.21,3.37-7c.17-3.77,0-7.56,0-11.4c1.53-.21,2.47-.38,3.41-.47c20.83-2.14,34.68-17.65,34.74-38.71c0-3.68-1.29-5.73-5-5-6.35,1.23-13,1.94-18.81,4.59-5.25,2.42-9.47,7.11-15.35,11.76c1.45-3.25,2-5.88,3.52-7.67c13.78-16.21,12.74-38.4-2.56-53.12-2.58-2.48-4.45-2.18-6.85.2-15.13,15.06-16,36.77-2.12,53.19c1.49,1.72,2.02,4.21,2.98,6.33Z" fill="#10b981"/><path d="M115.81,148.82c16-.41,30.14,13.81,29.66,29.47-14.95,1.84-30.59-13.52-29.66-29.47Z" fill="#10b981"/><path d="M154.73,178.24c-.54-15.59,13.64-29.83,29.29-29.42c2.64,16.74-17.25,32.18-29.29,29.42Z" fill="#10b981"/><path d="M150.36,104.38c11.47,11.53,11.28,32-.39,41.79-11.73-10.55-11.51-33.44.39-41.79Z" fill="#10b981"/></g></g></svg>